# File created by Blade
# Date/Time:  Tue Jan 27 18:05:51 2015
#---------------------------------------------------------
:version 1.10
:name HOM
:units
  mass 1.0
  length 1.000000
  angle deg
:documentation
     Acclaim Skeleton File
:root
   axis xyz
   order TX TY TZ RX RY RZ
   position 0.000000 0.000000 0.000000
   orientation 0 0 0
:bonedata
   begin
      id 1
      name Spine_dum
      direction 0.000000 1.000000 0.000000
      length 5.195262
      axis 0.0 0.0 0.0 xyz
   end
   begin
      id 2
      name LeftUpLeg_dum
      direction 1.000000 0.000000 0.000000
      length 3.351363
      axis 0.0 0.0 0.0 xyz
   end
   begin
      id 3
      name RightUpLeg_dum
      direction -1.000000 0.000000 0.000000
      length 3.351363
      axis 0.0 0.0 0.0 xyz
   end
   begin
      id 4
      name Spine
      direction 0.000000 1.000000 0.000000
      length 0.000000
      axis 0.0 0.0 0.0 xyz
      dof rx ry rz
   end
   begin
      id 5
      name Spine_dum1
      direction 0.000000 1.000000 0.000000
      length 15.653875
      axis 0.0 0.0 0.0 xyz
   end
   begin
      id 6
      name Spine_dum2
      direction 0.000000 1.000000 0.000000
      length 10.329768
      axis 0.0 0.0 0.0 xyz
   end
   begin
      id 7
      name Spine_dum3
      direction 0.000000 1.000000 0.000000
      length 10.329768
      axis 0.0 0.0 0.0 xyz
   end
   begin
      id 8
      name Head
      direction 0.000000 1.000000 0.000000
      length 4.527550
      axis 0.0 0.0 0.0 xyz
      dof rx ry rz
   end
   begin
      id 9
      name LeftShoulder
      direction 1.000000 0.000000 0.000000
      length 6.996006
      axis 0.0 0.0 -90.0 xyz
      dof rx ry rz
   end
   begin
      id 10
      name LeftArm
      direction 1.000000 0.000000 0.000000
      length 10.209302
      axis 0.0 0.0 -90.0 xyz
      dof rx ry rz
   end
   begin
      id 11
      name LeftForeArm
      direction 1.000000 0.000000 0.000000
      length 8.563163
      axis 0.0 0.0 -90.0 xyz
      dof ry rz rx
   end
   begin
      id 12
      name LeftHand
      direction 0.000000 0.000000 0.000000
      length 0.000000
      axis 0.0 0.0 -90.0 xyz
      dof rx ry rz
   end
   begin
      id 13
      name LeftHand_dum1
      direction 0.000000 0.000000 0.000000
      length 0.000000
      axis 0.0 0.0 -90.0 xyz
   end
   begin
      id 14
      name LeftHand_dum2
      direction 1.000000 0.000000 0.000000
      length 3.937000
      axis 0.0 0.0 -90.0 xyz
   end
   begin
      id 15
      name LeftHandThumb1
      direction 0.000000 0.000000 1.000000
      length 3.937000
      axis 0.0 0.0 -90.0 xyz
      dof rx rz ry
   end
   begin
      id 16
      name RightShoulder
      direction -1.000000 0.000000 0.000000
      length 6.996006
      axis 0.0 0.0 90.0 xyz
      dof rx ry rz
   end
   begin
      id 17
      name RightArm
      direction -1.000000 0.000000 0.000000
      length 10.209302
      axis 0.0 0.0 90.0 xyz
      dof rx ry rz
   end
   begin
      id 18
      name RightForeArm
      direction -1.000000 0.000000 0.000000
      length 8.563163
      axis 0.0 0.0 90.0 xyz
      dof ry rz rx
   end
   begin
      id 19
      name RightHand
      direction 0.000000 0.000000 0.000000
      length 0.000000
      axis 0.0 0.0 90.0 xyz
      dof rx ry rz
   end
   begin
      id 20
      name RightHand_dum1
      direction 0.000000 0.000000 0.000000
      length 0.000000
      axis 0.0 0.0 90.0 xyz
   end
   begin
      id 21
      name RightHand_dum2
      direction -1.000000 0.000000 0.000000
      length 3.937000
      axis 0.0 0.0 90.0 xyz
   end
   begin
      id 22
      name RightHandThumb1
      direction 0.000000 0.000000 1.000000
      length 3.937000
      axis 0.0 0.0 90.0 xyz
      dof rx rz ry
   end
   begin
      id 23
      name LeftUpLeg
      direction 0.000000 -1.000000 0.000000
      length 16.346831
      axis 0.0 0.0 0.0 xyz
      dof rx ry rz
   end
   begin
      id 24
      name LeftLeg
      direction 0.000000 -1.000000 0.000000
      length 13.959795
      axis 0.0 0.0 0.0 xyz
      dof rx ry rz
   end
   begin
      id 25
      name LeftFoot
      direction 0.000000 -0.258819 0.965926
      length 5.165550
      axis 15.0 0.0 0.0 xyz
      dof rx ry rz
   end
   begin
      id 26
      name LeftToeBase
      direction 0.000000 0.000000 1.000000
      length 2.952750
      axis 0.0 0.0 0.0 xyz
      dof rx ry rz
   end
   begin
      id 27
      name RightUpLeg
      direction 0.000000 -1.000000 0.000000
      length 16.346831
      axis 0.0 0.0 0.0 xyz
      dof rx ry rz
   end
   begin
      id 28
      name RightLeg
      direction 0.000000 -1.000000 0.000000
      length 13.959795
      axis 0.0 0.0 0.0 xyz
      dof rx ry rz
   end
   begin
      id 29
      name RightFoot
      direction 0.000000 -0.258819 0.965926
      length 5.165550
      axis 15.0 0.0 0.0 xyz
      dof rx ry rz
   end
   begin
      id 30
      name RightToeBase
      direction 0.000000 0.000000 1.000000
      length 2.952750
      axis 0.0 0.0 0.0 xyz
      dof rx ry rz
   end
:hierarchy
   begin
      root Spine_dum LeftUpLeg_dum RightUpLeg_dum
      Spine_dum Spine
      LeftUpLeg_dum LeftUpLeg
      RightUpLeg_dum RightUpLeg
      Spine Spine_dum1 Spine_dum2 Spine_dum3
      Spine_dum1 Head
      Spine_dum2 LeftShoulder
      Spine_dum3 RightShoulder
      LeftShoulder LeftArm
      LeftArm LeftForeArm
      LeftForeArm LeftHand
      LeftHand LeftHand_dum1 LeftHand_dum2
      LeftHand_dum1 LeftHandThumb1
      RightShoulder RightArm
      RightArm RightForeArm
      RightForeArm RightHand
      RightHand RightHand_dum1 RightHand_dum2
      RightHand_dum1 RightHandThumb1
      LeftUpLeg LeftLeg
      LeftLeg LeftFoot
      LeftFoot LeftToeBase
      RightUpLeg RightLeg
      RightLeg RightFoot
      RightFoot RightToeBase
   end

# File created by Blade
# Date/Time:  Tue Jan 27 18:05:41 2015
# Frame Rate: 120.000 fps
#------------------------------------------------------
:FULLY-SPECIFIED
:DEGREES
877
root -1.426447 31.917081 -6.341644 6.881226 23.244731 5.374967
Spine -8.187354 3.788890 -3.002777
Head -2.671773 -8.785091 -13.315291
LeftShoulder -8.174422 14.948738 4.483228
LeftArm 24.757602 39.796739 -70.362488
LeftForeArm -3.075738 -0.000000 14.171572
LeftHand -10.965565 -0.000000 -5.632555
LeftHandThumb1 -26.253704 0.000000 33.147579
RightShoulder 0.392965 44.042032 -43.891937
RightArm 73.024519 32.680544 120.628447
RightForeArm 41.684297 -0.000000 123.220994
RightHand 1.449473 -0.000000 21.313631
RightHandThumb1 -24.326973 -0.000000 -32.862282
LeftUpLeg -3.263576 -10.338835 -1.124737
LeftLeg 1.138503 -0.000000 -0.000000
LeftFoot -12.949318 10.868251 -23.855421
LeftToeBase 8.371497 -0.000000 -0.000000
RightUpLeg 4.366747 -13.438154 -4.043297
RightLeg -3.806626 -0.000000 0.000000
RightFoot -17.718343 -20.399628 12.022722
RightToeBase 5.479171 -0.000000 -0.000000
878
root -1.421772 31.916923 -6.339035 6.893401 23.306262 5.390434
Spine -8.178244 3.787134 -2.993544
Head -2.627711 -8.804357 -13.327467
LeftShoulder -8.106180 14.925285 4.516141
LeftArm 24.696443 39.800965 -70.416616
LeftForeArm -3.100249 -0.000000 14.161569
LeftHand -10.937930 -0.000000 -5.656313
LeftHandThumb1 -26.253704 0.000000 33.147579
RightShoulder 0.369791 44.309482 -43.899658
RightArm 73.022839 32.926963 120.808518
RightForeArm 41.834350 -0.000000 124.707013
RightHand 1.670330 -0.000000 21.318270
RightHandThumb1 -24.326973 -0.000000 -32.862282
LeftUpLeg -3.262329 -10.389329 -1.135486
LeftLeg 1.131480 -0.000000 -0.000000
LeftFoot -12.946203 10.838971 -23.878559
LeftToeBase 8.415489 -0.000000 -0.000000
RightUpLeg 4.388144 -13.476193 -4.058644
RightLeg -3.824709 -0.000000 0.000000
RightFoot -17.716192 -20.406302 12.044445
RightToeBase 5.423745 -0.000000 -0.000000
879
root -1.417813 31.917943 -6.336485 6.900839 23.358756 5.409788
Spine -8.148435 3.777689 -2.986724
Head -2.635566 -8.816112 -13.365469
LeftShoulder -8.074982 14.907778 4.534005
LeftArm 24.662289 39.801307 -70.442623
LeftForeArm -3.125552 -0.000000 14.164583
LeftHand -10.921924 -0.000000 -5.617504
LeftHandThumb1 -26.253704 0.000000 33.147579
RightShoulder 0.310281 44.762859 -43.936063
RightArm 72.817970 33.240443 120.900806
RightForeArm 41.923466 0.000000 126.209442
RightHand 1.871139 -0.000000 21.531885
RightHandThumb1 -24.326973 -0.000000 -32.862282
LeftUpLeg -3.265628 -10.374427 -1.155017
LeftLeg 1.140104 -0.000000 -0.000000
LeftFoot -12.893534 10.790157 -23.833402
LeftToeBase 8.333007 -0.000000 -0.000000
RightUpLeg 4.412477 -13.483098 -4.076131
RightLeg -3.838961 -0.000000 0.000000
RightFoot -17.733604 -20.451852 12.074018
RightToeBase 5.440804 -0.000000 -0.000000
880
root -1.413310 31.919288 -6.333102 6.902072 23.416651 5.423775
Spine -8.132160 3.759603 -2.972167
Head -2.591331 -8.819679 -13.409931
LeftShoulder -8.022965 14.890547 4.557700
LeftArm 24.623089 39.834872 -70.463383
LeftForeArm -3.168935 -0.000000 14.160131
LeftHand -10.953810 0.000000 -5.491313
LeftHandThumb1 -26.253704 0.000000 33.147579
RightShoulder 0.310403 44.975394 -43.913152
RightArm 72.848538 33.392447 121.037990
RightForeArm 42.152636 -0.000000 127.719900
RightHand 2.088777 -0.000000 21.645592
RightHandThumb1 -24.326973 -0.000000 -32.862282
LeftUpLeg -3.250005 -10.428750 -1.167174
LeftLeg 1.126889 -0.000000 -0.000000
LeftFoot -12.886189 10.782629 -23.859310
LeftToeBase 8.391481 -0.000000 -0.000000
RightUpLeg 4.441420 -13.525025 -4.089966
RightLeg -3.849624 -0.000000 0.000000
RightFoot -17.720678 -20.476519 12.075605
RightToeBase 5.398841 -0.000000 -0.000000
881
root -1.408296 31.920578 -6.330601 6.902807 23.457221 5.435884
Spine -8.107077 3.755713 -2.954633
Head -2.566060 -8.805343 -13.457561
LeftShoulder -7.994053 14.899129 4.570861
LeftArm 24.638793 39.865328 -70.453657
LeftForeArm -3.200697 -0.000000 14.155790
LeftHand -10.937707 -0.000000 -5.480888
LeftHandThumb1 -26.253704 0.000000 33.147579
RightShoulder 0.292636 45.025973 -43.887486
RightArm 73.057081 33.449940 121.218519
RightForeArm 41.955146 -0.000000 129.231339
RightHand 2.424757 -0.000000 21.409508
RightHandThumb1 -24.326973 -0.000000 -32.862282
LeftUpLeg -3.243211 -10.450615 -1.181409
LeftLeg 1.129426 -0.000000 -0.000000
LeftFoot -12.863247 10.764430 -23.844881
LeftToeBase 8.426534 -0.000000 -0.000000
RightUpLeg 4.460181 -13.538708 -4.105771
RightLeg -3.846145 -0.000000 0.000000
RightFoot -17.733219 -20.498816 12.104022
RightToeBase 5.428049 -0.000000 -0.000000
882
root -1.404140 31.921390 -6.328632 6.911635 23.496744 5.445834
Spine -8.088873 3.752467 -2.940369
Head -2.532503 -8.789475 -13.493738
LeftShoulder -7.956114 14.863866 4.603932
LeftArm 24.591852 39.893432 -70.498373
LeftForeArm -3.151676 -0.000000 14.159540
LeftHand -10.866103 -0.000000 -5.689218
LeftHandThumb1 -26.253704 0.000000 33.147579
RightShoulder 0.243176 45.092801 -43.889827
RightArm 73.287829 33.540110 121.484662
RightForeArm 42.190206 -0.000000 130.641053
RightHand 2.713845 -0.000000 21.586410
RightHandThumb1 -24.326973 -0.000000 -32.862282
LeftUpLeg -3.244918 -10.458936 -1.191794
LeftLeg 1.127084 -0.000000 -0.000000
LeftFoot -12.837084 10.735464 -23.837092
LeftToeBase 8.371535 -0.000000 -0.000000
RightUpLeg 4.479101 -13.543004 -4.117336
RightLeg -3.868141 -0.000000 0.000000
RightFoot -17.717258 -20.535035 12.116732
RightToeBase 5.407189 -0.000000 -0.000000
